<svg  viewBox="0 0 24 24" fill="none" xmlns="http://www.w3.org/2000/svg">
<path fill-rule="evenodd" clip-rule="evenodd" d="M13.3484 22.3703C13.8136 22.8356 14.568 22.8356 15.0333 22.3703L22.3737 15.0298C22.839 14.5646 22.839 13.8102 22.3737 13.3449L10.6511 1.6224C10.3802 1.35146 9.99553 1.22736 9.6173 1.28893L3.30449 2.31659C2.79878 2.39892 2.40234 2.79536 2.32001 3.30107L1.29235 9.61388C1.23078 9.99211 1.35488 10.3767 1.62582 10.6477L13.3484 22.3703ZM6.97048 4.98061C6.47202 4.48216 5.66386 4.48216 5.16541 4.98061C4.66695 5.47907 4.66695 6.28723 5.16541 6.78568C5.66386 7.28413 6.47202 7.28413 6.97048 6.78568C7.46893 6.28723 7.46893 5.47907 6.97048 4.98061Z"/>
<path fill-rule="evenodd" clip-rule="evenodd" d="M14.1066 21.6121C14.1531 21.6585 14.2285 21.6585 14.275 21.6121L21.6155 14.2716C21.6619 14.2251 21.6619 14.1497 21.6155 14.1032L9.89291 2.38062L10.6511 1.6224L22.3737 13.3449C22.839 13.8102 22.839 14.5646 22.3737 15.0298L15.0333 22.3703C14.568 22.8356 13.8136 22.8356 13.3484 22.3703L1.62582 10.6477C1.35488 10.3767 1.23078 9.99211 1.29235 9.61388L2.32001 3.30107C2.40234 2.79536 2.79878 2.39892 3.30449 2.31659L9.6173 1.28893C9.99553 1.22736 10.3802 1.35146 10.6511 1.6224L9.89291 2.38062C9.86589 2.35354 9.8274 2.34114 9.78959 2.34729L3.47678 3.37495C3.42623 3.38319 3.38661 3.42281 3.37837 3.47337L2.35071 9.78617C2.34456 9.82398 2.35695 9.86247 2.38404 9.8895L14.1066 21.6121ZM4.40718 4.22239C5.32439 3.30518 6.81149 3.30518 7.72869 4.22239C8.64591 5.1396 8.64591 6.62669 7.72869 7.54391C6.81149 8.46112 5.32439 8.46112 4.40718 7.54391C3.48998 6.62669 3.48998 5.1396 4.40718 4.22239ZM5.16541 4.98061C5.66386 4.48216 6.47202 4.48216 6.97048 4.98061C7.46893 5.47907 7.46893 6.28723 6.97048 6.78568C6.47202 7.28413 5.66386 7.28413 5.16541 6.78568C4.66695 6.28723 4.66695 5.47907 5.16541 4.98061Z"/>
</svg>
