<svg  viewBox="0 0 22 22" xmlns="http://www.w3.org/2000/svg">
<path fill-rule="evenodd" clip-rule="evenodd" d="M15.0495 8.89184C11.6517 8.89184 8.89279 11.6507 8.89279 15.0486C8.89279 18.4467 11.6517 21.2053 15.0495 21.2053C18.4477 21.2053 21.2062 18.4467 21.2062 15.0486C21.2062 11.6507 18.4477 8.89184 15.0495 8.89184ZM0.693359 10.9441V18.0901C0.693359 19.2171 1.60685 20.1306 2.73378 20.1306H8.20882C8.58643 20.1306 8.89279 19.8239 8.89279 19.4463C8.89279 19.0687 8.58643 18.7623 8.20882 18.7623C8.20882 18.7623 4.7256 18.7623 2.73378 18.7623C2.3624 18.7623 2.06163 18.4615 2.06163 18.0901V10.9441C2.06163 10.5668 1.75494 10.2601 1.37733 10.2601C1.00005 10.2601 0.693359 10.5668 0.693359 10.9441ZM14.3655 12.3038V15.0486C14.3655 15.3076 14.512 15.5447 14.7438 15.6606L16.93 16.7537C17.2676 16.9225 17.679 16.7856 17.8478 16.4477C18.0166 16.1101 17.8796 15.6987 17.5417 15.5299L15.7338 14.626V12.3038C15.7338 11.9262 15.4271 11.6195 15.0495 11.6195C14.6722 11.6195 14.3655 11.9262 14.3655 12.3038ZM4.44649 15.7329H6.49873C6.87602 15.7329 7.1827 15.4262 7.1827 15.0486C7.1827 14.6713 6.87602 14.3646 6.49873 14.3646H4.44649C4.06888 14.3646 3.7622 14.6713 3.7622 15.0486C3.7622 15.4262 4.06888 15.7329 4.44649 15.7329ZM4.44649 13.6806H6.49873C6.87602 13.6806 7.1827 13.3739 7.1827 12.9963C7.1827 12.619 6.87602 12.3124 6.49873 12.3124H4.44649C4.06888 12.3124 3.7622 12.619 3.7622 12.9963C3.7622 13.3739 4.06888 13.6806 4.44649 13.6806ZM4.44649 11.6284H6.49873C6.87602 11.6284 7.1827 11.3217 7.1827 10.9441C7.1827 10.5668 6.87602 10.2601 6.49873 10.2601H4.44649C4.06888 10.2601 3.7622 10.5668 3.7622 10.9441C3.7622 11.3217 4.06888 11.6284 4.44649 11.6284ZM10.2706 3.41943H6.16611V2.05116C6.16611 1.67355 5.85942 1.36719 5.48181 1.36719C5.10452 1.36719 4.79784 1.67355 4.79784 2.05116V3.41943H2.73378C1.60685 3.41943 0.693359 4.33292 0.693359 5.45952V8.20787C0.693359 8.58549 1.00005 8.89184 1.37733 8.89184C1.75494 8.89184 2.06163 8.58549 2.06163 8.20787V7.5239H19.8475V8.91319C19.8475 9.2908 20.1542 9.59749 20.5318 9.59749C20.9094 9.59749 21.2157 9.2908 21.2157 8.91319V5.45952C21.2157 4.91838 21.0007 4.39958 20.6181 4.01704C20.2356 3.63417 19.7168 3.41943 19.1757 3.41943H17.1113V2.05116C17.1113 1.67355 16.8049 1.36719 16.4273 1.36719C16.0497 1.36719 15.743 1.67355 15.743 2.05116V3.41943H11.6385V2.05116C11.6385 1.67355 11.3322 1.36719 10.9546 1.36719C10.5769 1.36719 10.2706 1.67355 10.2706 2.05116V3.41943Z" />
</svg>
