<svg  viewBox="0 0 24 24"  xmlns="http://www.w3.org/2000/svg">
<g >
<path d="M23.6994 11.7192C24.1344 11.2407 24.0924 10.5073 23.6056 10.0816L12.8796 0.696357C12.3928 0.270609 11.6122 0.279528 11.1356 0.716463L0.373269 10.582C-0.103331 11.0189 -0.126723 11.7513 0.321478 12.2172L0.591306 12.4982C1.03896 12.9641 1.76254 13.0197 2.20644 12.6219L3.01076 11.9016V22.4469C3.01076 23.0939 3.53501 23.6177 4.18153 23.6177H8.37674C9.02326 23.6177 9.54751 23.0939 9.54751 22.4469V15.0695H14.8985V22.4469C14.8892 23.0934 15.3518 23.6172 15.9983 23.6172H20.4442C21.0907 23.6172 21.615 23.0934 21.615 22.4464V12.0501C21.615 12.0501 21.8372 12.2448 22.1112 12.4856C22.3848 12.726 22.9594 12.5333 23.3945 12.0543L23.6994 11.7192Z" />
</g>

</svg>
