<svg  viewBox="0 0 24 24" fill="none" xmlns="http://www.w3.org/2000/svg">
<path d="M12.4389 0.921875H10.5171C10.208 0.921875 9.95654 1.17331 9.95654 1.48247V3.56398H12.9994V1.48247C12.9995 1.17331 12.748 0.921875 12.4389 0.921875Z" />
<path d="M8.21729 10.3516V15.8528C10.3042 16.0191 12.1403 16.5379 12.1403 17.4628V19.8298H14.7392C14.7392 19.8251 14.7392 19.8203 14.7392 19.8155V10.3516H8.21729Z" />
<path d="M13.225 4.17969H9.73115C8.79592 4.7167 8.21729 5.71012 8.21729 6.79107V9.73312H14.7392V6.79107C14.7392 5.70973 14.1604 4.71662 13.225 4.17969Z" />
<path d="M19.5492 9.21875H18.2143C17.7434 9.21871 17.3604 9.60177 17.3604 10.0726V11.8609H20.4031V10.0726C20.4031 9.60177 20.02 9.21875 19.5492 9.21875Z" />
<path d="M20.6284 12.4766H17.1345C16.1992 13.0135 15.6206 14.007 15.6206 15.0879V21.4379C15.6206 21.4426 15.6206 21.4474 15.6206 21.4522H22.1425C22.1426 21.4474 22.1426 21.4426 22.1426 21.4379V15.0879C22.1426 14.0066 21.5638 13.0135 20.6284 12.4766ZM18.8815 18.4872C18.1963 18.4872 17.6408 17.9317 17.6408 17.2464C17.6408 16.5612 18.1963 16.0056 18.8815 16.0056C19.5668 16.0056 20.1223 16.5612 20.1223 17.2464C20.1223 17.9317 19.5668 18.4872 18.8815 18.4872Z" />
<path d="M6.69055 16.4062C3.50183 16.4062 1.85742 17.1446 1.85742 17.4597C1.85742 17.7747 3.50183 18.5132 6.69055 18.5132C9.87936 18.5132 11.5238 17.7748 11.5238 17.4597C11.5237 17.1447 9.87936 16.4062 6.69055 16.4062Z" />
<path d="M6.69055 19.1292C4.81254 19.1292 2.83219 18.8616 1.85742 18.2891V22.0205C1.85742 22.3355 3.50183 23.0739 6.69055 23.0739C9.87936 23.0739 11.5238 22.3356 11.5238 22.0205V18.2891C10.549 18.8616 8.56861 19.1292 6.69055 19.1292Z" />
</svg>
