<svg  viewBox="0 0 22 22" fill="none" xmlns="http://www.w3.org/2000/svg">
<g clip-path="url(#clip0_323_2900)">
<path d="M13.2182 13.9119C15.7567 12.0469 16.9908 9.97355 16.9908 7.57341C16.9908 3.79802 14.3033 0.726562 10.9998 0.726562C7.69628 0.726562 5.00879 3.79802 5.00879 7.57341C5.00879 9.97355 6.24283 12.0469 8.7814 13.9119C9.62431 14.5312 9.48385 14.8294 9.01837 15.8172C8.74364 16.4003 8.43221 17.0612 8.43221 17.8437C8.43221 20.0912 9.72381 21.2671 10.9998 21.2671C12.2758 21.2671 13.5673 20.0912 13.5673 17.8437C13.5673 17.0612 13.2559 16.4003 12.9812 15.8172C12.5157 14.8294 12.3752 14.5312 13.2182 13.9119ZM10.9998 12.7085C8.64019 12.7085 6.7205 10.4049 6.7205 7.57341C6.7205 4.74192 8.64019 2.43827 10.9998 2.43827C13.3594 2.43827 15.2791 4.74192 15.2791 7.57341C15.2791 10.4049 13.3594 12.7085 10.9998 12.7085Z" />
<path d="M13.5834 4.76562L8.24219 10.1069C8.69151 10.8682 9.33672 11.4372 10.0858 11.6959L14.4186 7.36315C14.3924 6.43557 14.1028 5.5346 13.5834 4.76562Z" />
<path d="M10.9997 3.29688C9.35464 3.29688 7.98142 4.74776 7.65234 6.68146L11.0356 3.29816C11.0237 3.29794 11.0118 3.29688 10.9997 3.29688Z" />
<path d="M11.3484 3.32031L7.6011 7.06746C7.58527 7.23446 7.57617 7.40392 7.57617 7.57616C7.57637 7.903 7.60681 8.22912 7.66711 8.55034L12.492 3.72545C12.1435 3.51143 11.7538 3.37337 11.3484 3.32031Z" />
<path d="M10.896 11.8476C10.9304 11.8489 10.9649 11.851 10.9997 11.851C12.6686 11.851 14.0575 10.3581 14.3608 8.38281L10.896 11.8476Z" />
<path d="M4.58084 11.4226C4.24048 11.4223 3.91415 11.2869 3.67348 11.0462C3.4328 10.8056 3.29743 10.4792 3.29706 10.1389C3.29706 10.0254 3.25197 9.91653 3.17172 9.83627C3.09147 9.75602 2.98263 9.71094 2.86913 9.71094C2.75564 9.71094 2.64679 9.75602 2.56654 9.83627C2.48629 9.91653 2.4412 10.0254 2.4412 10.1389C2.44084 10.4792 2.30546 10.8056 2.06479 11.0462C1.82411 11.2869 1.49779 11.4223 1.15742 11.4226C1.04393 11.4226 0.935081 11.4677 0.854829 11.548C0.774577 11.6282 0.729492 11.7371 0.729492 11.8506C0.729492 11.9641 0.774577 12.0729 0.854829 12.1532C0.935081 12.2334 1.04393 12.2785 1.15742 12.2785C1.49779 12.2789 1.82411 12.4142 2.06479 12.6549C2.30546 12.8956 2.44084 13.2219 2.4412 13.5623C2.4412 13.6758 2.48629 13.7846 2.56654 13.8649C2.64679 13.9451 2.75564 13.9902 2.86913 13.9902C2.98263 13.9902 3.09147 13.9451 3.17172 13.8649C3.25197 13.7846 3.29706 13.6758 3.29706 13.5623C3.29743 13.2219 3.4328 12.8956 3.67348 12.6549C3.91415 12.4142 4.24048 12.2789 4.58084 12.2785C4.69434 12.2785 4.80318 12.2334 4.88343 12.1532C4.96369 12.0729 5.00877 11.9641 5.00877 11.8506C5.00877 11.7371 4.96369 11.6282 4.88343 11.548C4.80318 11.4677 4.69434 11.4226 4.58084 11.4226Z" />
<path d="M19.1306 14.4226C18.7903 14.4223 18.464 14.2869 18.2233 14.0462C17.9826 13.8056 17.8472 13.4792 17.8469 13.1389C17.8469 13.0254 17.8018 12.9165 17.7215 12.8363C17.6413 12.756 17.5324 12.7109 17.4189 12.7109C17.3054 12.7109 17.1966 12.756 17.1163 12.8363C17.0361 12.9165 16.991 13.0254 16.991 13.1389C16.9906 13.4792 16.8553 13.8056 16.6146 14.0462C16.3739 14.2869 16.0476 14.4223 15.7072 14.4226C15.5937 14.4226 15.4849 14.4677 15.4046 14.548C15.3244 14.6282 15.2793 14.7371 15.2793 14.8506C15.2793 14.9641 15.3244 15.0729 15.4046 15.1532C15.4849 15.2334 15.5937 15.2785 15.7072 15.2785C16.0476 15.2789 16.3739 15.4142 16.6146 15.6549C16.8553 15.8956 16.9906 16.2219 16.991 16.5623C16.991 16.6758 17.0361 16.7846 17.1163 16.8649C17.1966 16.9451 17.3054 16.9902 17.4189 16.9902C17.5324 16.9902 17.6413 16.9451 17.7215 16.8649C17.8018 16.7846 17.8469 16.6758 17.8469 16.5623C17.8472 16.2219 17.9826 15.8956 18.2233 15.6549C18.464 15.4142 18.7903 15.2789 19.1306 15.2785C19.2441 15.2785 19.353 15.2334 19.4332 15.1532C19.5135 15.0729 19.5586 14.9641 19.5586 14.8506C19.5586 14.7371 19.5135 14.6282 19.4332 14.548C19.353 14.4677 19.2441 14.4226 19.1306 14.4226Z" />
<path d="M20.3074 2.43827C19.967 2.43791 19.6407 2.30253 19.4 2.06186C19.1594 1.82118 19.024 1.49486 19.0236 1.15449C19.0236 1.041 18.9785 0.932152 18.8983 0.8519C18.818 0.771648 18.7092 0.726563 18.5957 0.726562C18.4822 0.726563 18.3734 0.771648 18.2931 0.8519C18.2129 0.932152 18.1678 1.041 18.1678 1.15449C18.1674 1.49486 18.032 1.82118 17.7913 2.06186C17.5507 2.30253 17.2244 2.43791 16.884 2.43827C16.7705 2.43827 16.6616 2.48336 16.5814 2.56361C16.5011 2.64386 16.4561 2.75271 16.4561 2.8662C16.4561 2.9797 16.5011 3.08854 16.5814 3.16879C16.6616 3.24905 16.7705 3.29413 16.884 3.29413C17.2244 3.2945 17.5507 3.42987 17.7913 3.67055C18.032 3.91122 18.1674 4.23755 18.1678 4.57791C18.1678 4.69141 18.2129 4.80025 18.2931 4.88051C18.3734 4.96076 18.4822 5.00584 18.5957 5.00584C18.7092 5.00584 18.818 4.96076 18.8983 4.88051C18.9785 4.80025 19.0236 4.69141 19.0236 4.57791C19.024 4.23755 19.1594 3.91122 19.4 3.67055C19.6407 3.42987 19.967 3.2945 20.3074 3.29413C20.4209 3.29413 20.5297 3.24905 20.61 3.16879C20.6902 3.08854 20.7353 2.9797 20.7353 2.8662C20.7353 2.75271 20.6902 2.64386 20.61 2.56361C20.5297 2.48336 20.4209 2.43827 20.3074 2.43827Z" />
</g>
<defs>
<clipPath id="clip0_323_2900">
<rect width="20.5405" height="20.5405" fill="white" transform="translate(0.729492 0.726562)"/>
</clipPath>
</defs>
</svg>
