<svg  viewBox="0 0 24 24"  xmlns="http://www.w3.org/2000/svg">
<g clip-path="url(#clip0_318_2654)">
<path d="M9.95964 12.6345L8.45268 14.1422C8.37092 14.2244 8.37092 14.3563 8.45268 14.4376C8.53404 14.519 8.66592 14.519 8.74769 14.4376L10.7396 12.4453L9.95964 12.6345Z" />
<path d="M9.32602 15.353C9.46272 15.4897 9.74341 15.4888 10.0018 15.375L10.1116 15.1397L10.4806 13.6094L9.47332 14.6159C9.22994 14.8599 9.16359 15.1911 9.32602 15.353Z" />
<path d="M1.55539 6.70694L4.2067 4.05549C4.441 3.82161 4.8157 3.81789 5.0606 4.03636L1.70227 7.39482C1.6205 7.47659 1.6205 7.60847 1.70227 7.69024C1.78363 7.77159 1.91551 7.77159 1.99727 7.69024L5.35973 4.32654L5.6791 4.6455L2.31527 8.00919C2.2335 8.09055 2.2335 8.22243 2.31527 8.3042C2.39704 8.38597 2.5285 8.38597 2.61027 8.3042L5.97396 4.9405L6.29292 5.25987L2.92923 8.62233C2.84787 8.7041 2.84787 8.83597 2.92923 8.91733C3.01099 8.9991 3.14273 8.9991 3.22423 8.91733L6.58792 5.55432L6.90729 5.87369L3.5436 9.23739C3.46183 9.31888 3.46183 9.45062 3.5436 9.53239C3.62537 9.61375 3.75683 9.61375 3.8386 9.53239L7.2023 6.16869L7.52125 6.48765L4.15838 9.85134C4.07703 9.93311 4.07703 10.0646 4.15838 10.1463C4.24015 10.2281 4.37107 10.2281 4.45339 10.1463L7.81625 6.78265L8.13521 7.10202L4.77179 10.4653C4.69002 10.5471 4.69002 10.6788 4.77179 10.7603C4.85315 10.8421 4.98489 10.8421 5.06679 10.7603L8.43007 7.39689L8.74944 7.71584L5.38575 11.0788C5.30398 11.1602 5.30398 11.2919 5.38575 11.3739C5.46752 11.4552 5.59898 11.4552 5.68075 11.3739L9.04458 8.01098L9.36354 8.32994L5.99957 11.6935C5.91821 11.7753 5.91821 11.9067 5.99957 11.9885C6.08134 12.0703 6.21322 12.0703 6.29457 11.9885L9.65827 8.6248L9.97722 8.94417L7.08873 11.8327L8.19206 11.3185L10.2714 9.23835L10.5908 9.55731L9.38653 10.7611L10.4899 10.2474L10.8849 9.85231L11.0249 9.99231L11.9139 9.44924L12.3187 8.93013L5.68075 2.29181C5.43751 2.04856 5.04009 2.04856 4.79671 2.29181L0.967036 6.12106C0.723655 6.36431 0.658267 6.6951 0.819741 6.85781C0.981352 7.02025 1.31297 6.94936 1.55539 6.70694Z" />
<path d="M23.1718 19.7757C21.9928 18.5975 14.7755 11.3807 14.7755 11.3807C14.6397 11.244 14.4566 11.0618 14.2767 10.8828L13.7584 11.2875L13.1734 12.2513L12.2869 14.1548C12.8715 13.9109 13.4296 13.757 13.7445 13.8847C16.4703 14.9896 17.8315 20.3274 19.0473 21.543C20.2628 22.7586 23.908 20.5114 23.1718 19.7757Z" />
<path d="M7.83909 13.5242C7.75774 13.6064 7.75774 13.7375 7.83909 13.8196C7.92086 13.9018 8.0526 13.9018 8.1341 13.8196L9.11739 12.8359L8.33673 13.0263L7.83909 13.5242Z" />
<path d="M10.4208 17.1734L12.8171 12.0346L13.4415 11.0057L23.1998 3.38366L23.0868 3.14027L15.3732 7.82701L20.06 0.113018L19.8166 0L12.1946 9.75836L11.1665 10.3833L6.02648 12.7796C5.19337 11.7596 3.74864 11.3829 2.50131 11.9646C1.02657 12.6526 0.386592 14.4116 1.0742 15.886C1.76222 17.3613 3.52122 18.0017 4.9961 17.3132C6.47043 16.6264 7.1104 14.8656 6.42321 13.3913L7.88129 12.7118L11.3288 11.8721L10.4891 15.3205L9.80852 16.7777C8.33378 16.0894 6.57463 16.7305 5.88744 18.2048C5.19984 19.6793 5.83981 21.4384 7.31469 22.1267C7.47988 22.2033 7.64713 22.2586 7.81714 22.3025L7.42908 23.9997L8.35622 23.8305L8.52306 22.397C9.64677 22.4099 10.7318 21.7834 11.2359 20.6988C11.817 19.4516 11.4407 18.0066 10.4208 17.1734ZM12.4257 9.98743C12.6431 9.7702 12.996 9.7702 13.2128 9.98743C13.4292 10.2047 13.4302 10.5582 13.2128 10.7747C12.9952 10.9923 12.6421 10.9923 12.4244 10.7747C12.208 10.5582 12.208 10.2047 12.4257 9.98743ZM4.6799 16.6395C3.57697 17.1545 2.2604 16.6746 1.74625 15.572C1.23154 14.4686 1.71128 13.1522 2.81462 12.6379C3.91837 12.122 5.23494 12.6021 5.74909 13.7055C6.26408 14.8088 5.78489 16.1254 4.6799 16.6395ZM10.5615 20.3858C10.0478 21.4891 8.73189 21.9675 7.62855 21.4541C6.5248 20.939 6.04561 19.6233 6.55977 18.5208C7.0753 17.4159 8.39091 16.9356 9.49424 17.4516C10.5973 17.9659 11.0773 19.2823 10.5615 20.3858Z" />
</g>
<defs>
<clipPath id="clip0_318_2654">
<rect width="24" height="24" fill="white"/>
</clipPath>
</defs>
</svg>
