<svg  viewBox="0 0 20 18"  xmlns="http://www.w3.org/2000/svg">
<path fill-rule="evenodd" clip-rule="evenodd" d="M1.92362 8.89932C6.37293 6.95005 9.33984 5.66498 10.8243 5.0441C15.0629 3.27135 15.9436 2.9634 16.5177 2.95323C16.6439 2.951 16.9262 2.98246 17.1091 3.13167C17.2635 3.25765 17.306 3.42784 17.3263 3.54729C17.3466 3.66674 17.3719 3.93884 17.3518 4.15146C17.1221 6.57822 16.1283 12.4673 15.6227 15.1853C15.4087 16.3354 14.9874 16.721 14.5796 16.7588C13.6933 16.8408 13.0203 16.1698 12.1618 15.6039C10.8185 14.7185 10.0596 14.1673 8.75575 13.3033C7.24887 12.3048 8.22572 11.756 9.08448 10.859C9.30923 10.6243 13.2144 7.05257 13.2899 6.72855C13.2994 6.68803 13.3082 6.53698 13.2189 6.45722C13.1297 6.37745 12.998 6.40473 12.9029 6.42642C12.7682 6.45717 10.6223 7.88343 6.46515 10.7052C5.85603 11.1258 5.30432 11.3307 4.81 11.32C4.26505 11.3081 3.21679 11.0101 2.43752 10.7554C1.48171 10.443 0.722046 10.2778 0.788195 9.74723C0.82265 9.47086 1.20113 9.18823 1.92362 8.89932Z" />
</svg>
