<svg  viewBox="0 0 22 22" fill="none" xmlns="http://www.w3.org/2000/svg">
<g clip-path="url(#clip0_323_2895)">
<path d="M7.34739 12.7391C8.16122 12.8613 9.15462 12.6741 10.2397 12.6092C10.4422 12.655 10.6447 12.6856 10.8549 12.6856C11.0688 12.6856 11.279 12.655 11.4891 12.6054C14.3127 12.7429 16.5135 13.5415 16.5135 7.79502C16.5135 3.89399 13.9803 0.726562 10.8549 0.726562C7.72947 0.726562 5.19629 3.89399 5.19629 7.79502C5.19629 10.9319 5.79615 12.1507 6.77045 12.5748C6.95003 12.6589 7.14489 12.7085 7.34739 12.7391ZM6.44569 5.59042C7.03791 6.41189 8.57386 6.23614 9.89968 5.19688C10.2359 4.93325 10.5301 4.63141 10.767 4.32574C10.7976 4.32956 10.8281 4.33338 10.8587 4.34103C10.9886 4.36395 11.107 4.4098 11.2408 4.45183C11.3593 4.50914 11.4891 4.55499 11.6037 4.62758C11.7222 4.68872 11.8292 4.77277 11.9362 4.84537C12.0317 4.92943 12.1387 5.00966 12.2189 5.10136C12.3029 5.18542 12.3832 5.27712 12.4443 5.365C12.5131 5.44905 12.5628 5.53693 12.6124 5.61335C12.662 5.68976 12.7041 5.75854 12.727 5.81967C12.7843 5.93811 12.8187 6.00689 12.8187 6.00689C12.8187 6.00689 12.8072 5.93429 12.7843 5.80057C12.7767 5.73179 12.7576 5.65538 12.7347 5.56368C12.7117 5.47198 12.685 5.365 12.6391 5.25801C12.6009 5.14721 12.5474 5.03259 12.4863 4.91032C12.429 4.78806 12.3449 4.66961 12.2647 4.53971C12.1691 4.42126 12.0813 4.29136 11.9666 4.17673C11.8597 4.05447 11.7298 3.95131 11.6037 3.8405C11.4852 3.75645 11.3592 3.66475 11.2255 3.59215C11.2828 3.47371 11.3286 3.35144 11.3668 3.23682C11.8406 3.45078 12.3258 3.72206 12.7117 4.10796C14.1292 5.52547 13.5714 7.17223 14.6642 6.0833C14.8361 5.91137 14.9774 5.73179 15.0883 5.55221C15.1265 5.55221 15.1647 5.54839 15.1952 5.55604C15.3443 5.59424 15.4398 5.70887 15.4933 5.80057C15.6423 6.04892 15.6767 6.40807 15.585 6.76722C15.4474 7.30213 15.0959 7.61926 14.8132 7.65365L14.5839 7.68421L14.5228 7.90964C13.9803 9.87734 12.5169 11.9711 10.8625 11.9711C9.20811 11.9711 7.74857 9.87734 7.2022 7.90964L7.14107 7.68421L6.91182 7.65365C6.6329 7.61544 6.27757 7.29831 6.14002 6.76722C6.04832 6.40807 6.08271 6.04892 6.23172 5.80057C6.26611 5.73179 6.34252 5.64391 6.44569 5.59042Z" />
<path d="M15.1073 13.2578C14.6641 14.0143 14.1483 14.6524 13.4682 15.0039C12.0621 15.7222 11.0153 16.3106 11.0153 16.3106L11.0114 16.3068V16.2953L11 16.3029L10.9885 16.2953V16.3068L10.9847 16.3106C10.9847 16.3106 9.94161 15.7298 8.53174 15.0039C7.85164 14.6524 7.33966 14.0143 6.89262 13.2578C4.8103 14.106 3.3584 16.0469 3.3584 17.7472C3.3584 19.5354 3.3584 21.27 3.3584 21.27H10.9847H11.0153H18.6415C18.6415 21.27 18.6415 19.5354 18.6415 17.7472C18.6415 16.0508 17.1858 14.106 15.1073 13.2578Z" />
</g>
<defs>
<clipPath id="clip0_323_2895">
<rect width="20.5405" height="20.5405" fill="white" transform="translate(0.729492 0.726562)"/>
</clipPath>
</defs>
</svg>
