<svg  viewBox="0 0 18 18"  xmlns="http://www.w3.org/2000/svg">

<path fill-rule="evenodd" clip-rule="evenodd" d="M9.15451 1.81882C5.28531 1.81882 2.13804 4.9421 2.13804 8.78108C2.13804 10.3045 2.63463 11.7153 3.47462 12.863L2.59799 15.4487L5.29438 14.5917C6.40221 15.3191 7.72934 15.7433 9.1547 15.7433C13.0233 15.7433 16.1712 12.6204 16.1712 8.78146C16.1712 4.94248 13.0235 1.81882 9.15451 1.81882ZM12.9767 10.4514C13.1811 10.5529 13.3172 10.6039 13.3688 10.6883C13.4196 10.7729 13.4196 11.1792 13.2496 11.6537C13.0785 12.1274 12.2432 12.5845 11.8685 12.6184C11.4933 12.6524 11.4933 12.9234 9.41348 12.111C7.33381 11.2982 6.02122 9.1819 5.91903 9.04666C5.83797 8.93976 5.37424 8.3283 5.17488 7.59054C5.17425 7.58821 5.17362 7.58588 5.17299 7.58354C5.15248 7.5069 5.13484 7.42891 5.12079 7.35C5.11079 7.29388 5.10261 7.23729 5.09651 7.18038C5.08823 7.10322 5.08377 7.02548 5.08377 6.94753C5.08377 5.94888 5.61209 5.45777 5.79947 5.25452C5.98703 5.05147 6.20879 5.00066 6.34517 5.00066C6.48154 5.00066 6.61811 5.01766 6.7373 5.01766C6.85687 5.01766 7.02706 4.95003 7.19743 5.35614C7.36781 5.76263 7.77732 6.76148 7.82832 6.86291C7.8797 6.96472 7.91389 7.08316 7.84532 7.21859C7.77751 7.35421 7.74351 7.43864 7.64094 7.55727C7.53876 7.6757 7.42618 7.82171 7.334 7.91276C7.23181 8.01381 7.12509 8.12356 7.24428 8.32661C7.36366 8.53004 7.7743 9.19418 8.38233 9.73213C9.16377 10.4235 9.8228 10.638 10.0272 10.7395C10.2319 10.8411 10.3511 10.8241 10.4705 10.6883C10.5901 10.5529 10.9822 10.0959 11.1184 9.89269C11.2546 9.68963 11.3913 9.72363 11.5789 9.79125C11.7659 9.85869 12.7719 10.35 12.9767 10.4514Z" />
<path fill-rule="evenodd" clip-rule="evenodd" d="M9.15451 17.0622C13.764 17.0622 17.5 13.3546 17.5 8.78108C17.5 4.20751 13.7643 0.5 9.15451 0.5C4.54524 0.5 0.808833 4.20751 0.808833 8.78108C0.808833 10.3456 1.24649 11.8092 2.00639 13.057L0.5 17.5L5.12041 16.0318C6.31646 16.6882 7.69119 17.0622 9.15451 17.0622ZM2.13804 8.78108C2.13804 4.9421 5.28531 1.81882 9.15451 1.81882C13.0235 1.81882 16.1712 4.94248 16.1712 8.78146C16.1712 12.6204 13.0233 15.7433 9.1547 15.7433C7.72934 15.7433 6.40221 15.3191 5.29438 14.5917L2.59799 15.4487L3.47462 12.863C2.63463 11.7153 2.13804 10.3045 2.13804 8.78108ZM5.91903 9.04666C5.83797 8.93976 5.37424 8.3283 5.17488 7.59054C5.17425 7.58821 5.17362 7.58588 5.17299 7.58354C5.37125 8.32436 5.83771 8.93943 5.91903 9.04666Z" />


</svg>
