<svg width="248" height="74" viewBox="0 0 248 74" fill="none" xmlns="http://www.w3.org/2000/svg">
<g clip-path="url(#clip0_326_3227)">
<path d="M8.53333 69.4381C7.82222 70.0644 6.84444 70.3329 5.86667 70.3329C3.73333 70.4224 1.95556 68.7222 1.86667 66.5747V66.1273C1.86667 63.7114 3.37778 62.0112 5.68889 62.0112C6.57778 61.9218 7.46667 62.1902 8.17778 62.7271L8.35555 62.906L9.15555 61.5638L8.97778 61.4744C8 60.7585 6.84444 60.4006 5.6 60.4901C2.31111 60.4901 0 62.906 0 66.3958C0 69.8855 2.31111 72.3014 5.68889 72.3014C7.02222 72.3014 8.26667 71.854 9.24444 71.0487L9.33333 70.9592L8.8 69.3486L8.53333 69.4381Z" fill="white"/>
<path d="M16.8891 67.0207H21.2446V65.3206H16.8891V62.2782H21.6891V60.5781H15.2002V71.9421H21.8669V70.1525H16.8891V67.0207Z" fill="white"/>
<path d="M26.6665 62.2782H30.4887V71.9421H32.1776V62.2782H35.9998V60.5781H26.6665V62.2782Z" fill="white"/>
<path d="M44.5335 64.5117C44.1779 64.5117 43.7335 64.5117 43.2001 64.6012L43.1113 60.6641H41.4224V72.028H44.1779C47.1113 72.028 48.8001 70.5963 48.8001 68.1804C48.8001 65.7644 47.289 64.5117 44.5335 64.5117ZM46.9335 68.1804C46.9335 69.8805 45.5113 70.3279 44.3557 70.3279C44.0001 70.3279 43.5557 70.3279 43.2001 70.2384V66.3013C43.289 66.3013 43.4668 66.3013 43.6446 66.3013C43.9113 66.3013 44.089 66.3013 44.3557 66.3013C45.9557 66.2118 46.9335 66.9277 46.9335 68.1804Z" fill="white"/>
<path d="M67.2892 69.4345C66.5781 70.0609 65.6003 70.3293 64.6225 70.3293C62.4892 70.4188 60.7114 68.7187 60.6225 66.5712V66.2133C60.6225 63.7973 62.1336 62.0972 64.4447 62.0972C65.3336 62.0077 66.2225 62.2761 66.9336 62.813L67.1114 62.992L67.9114 61.6498L67.7336 61.5603C66.7559 60.8445 65.6003 60.4865 64.3559 60.576C61.067 60.576 58.7559 62.992 58.7559 66.4817C58.7559 69.9714 61.067 72.3874 64.4447 72.3874C64.5336 72.3874 64.6225 72.3874 64.7114 72.3874C65.867 72.3874 67.0225 71.94 68.0003 71.1347L68.0892 71.0452L67.5559 69.2556L67.2892 69.4345Z" fill="white"/>
<path d="M72.4443 62.2782H76.1777V71.9421H77.9554V62.2782H81.7777V60.5781H72.4443V62.2782Z" fill="white"/>
<path d="M91.4668 67.1961L87.5557 60.6641H85.6001L90.6668 69.0752L90.5779 69.3436C90.2223 70.0595 89.8668 70.3279 89.4223 70.3279C89.1556 70.3279 88.9779 70.2384 88.7112 70.1489L88.4445 69.97L87.7334 71.4911L87.9112 71.5806C88.3557 71.8491 88.889 72.028 89.3334 72.028C90.7557 72.028 91.4668 71.0437 92.2668 69.4331L96.1779 60.7535H94.3112L91.4668 67.1961Z" fill="white"/>
<path d="M105.244 60.4844H103.822L100.089 70.1482H98.5776V73.9064H100.267V71.8483H108.889V73.9064H110.578V70.1482H109.067L105.244 60.4844ZM107.2 70.2377H101.955C102.311 69.2534 103.644 65.7637 104.622 63.1688L107.2 70.2377Z" fill="white"/>
<path d="M117.778 68.8998V60.5781H116V71.9421H117.511L123.733 63.7099V71.9421H125.511V60.5781H124L117.778 68.8998Z" fill="white"/>
<path d="M137.156 60.4863C138.844 60.4863 140.089 59.5915 140.178 58.3387V58.0703H138.578L138.489 58.2493C138.311 58.8756 137.778 59.2336 137.067 59.1441C136.444 59.2336 135.911 58.8756 135.644 58.2493L135.556 58.0703H133.956V58.3387C134.222 59.6809 135.467 60.4863 137.156 60.4863Z" fill="white"/>
<path d="M134.133 68.8998V60.5781H132.355V71.9421H133.867L140 63.7099V71.9421H141.778V60.5781H140.355L134.133 68.8998Z" fill="white"/>
<path d="M162.311 60.5781H160.089L155.378 65.8574V60.5781H153.6V71.9421H155.378V66.3048L160.267 72.0316H162.489L157.245 66.0364L162.311 60.5781Z" fill="white"/>
<path d="M170.844 60.5781H167.822V72.0316H169.6V67.826C170.133 67.9155 170.667 67.9155 170.933 67.9155C173.778 67.9155 175.111 66.0364 175.111 64.3363C175.022 62.5467 174.311 60.5781 170.844 60.5781ZM173.244 64.1573C173.244 65.3206 172.356 66.1259 170.933 66.1259C170.489 66.1259 170.044 66.1259 169.6 66.0364V62.2782H171.022C172 62.2782 173.244 62.6362 173.244 64.1573Z" fill="white"/>
<path d="M184.978 60.4844H183.555L178.667 71.9378H180.533L181.867 68.6271H186.489L187.822 71.9378H189.778L184.978 60.6633V60.4844ZM185.689 66.9269H182.489L184.178 63.0793L185.689 66.9269Z" fill="white"/>
<path d="M202.311 69.4381C201.6 70.0644 200.622 70.3329 199.645 70.3329C198.667 70.3329 197.6 69.975 196.889 69.2591C196.089 68.5433 195.733 67.559 195.645 66.5747V66.1273C195.645 63.7114 197.156 62.0112 199.467 62.0112C200.356 61.9218 201.244 62.1902 201.956 62.7271L202.133 62.906L202.933 61.5638L202.756 61.4744C201.778 60.7585 200.533 60.4006 199.378 60.4901C196.089 60.4901 193.778 62.906 193.778 66.3958C193.778 69.8855 196.089 72.3014 199.467 72.3014C199.556 72.3014 199.644 72.3014 199.733 72.3014C200.889 72.3014 202.044 71.854 203.022 71.0487L203.111 70.9592L202.578 69.3486L202.311 69.4381Z" fill="white"/>
<path d="M213.333 60.4844C213.245 60.4844 213.245 60.4844 213.156 60.4844C210.133 60.4844 207.645 62.9003 207.556 65.9427V66.2111C207.556 69.4324 210.133 72.0273 213.333 72.0273C216.533 72.0273 219.111 69.4324 219.111 66.2111C219.111 63.0793 216.533 60.4844 213.333 60.4844ZM217.245 66.3901C217.156 68.4481 215.467 70.1482 213.333 70.1482C211.2 70.1482 209.422 68.3586 209.422 66.2111V66.1216C209.511 64.0636 211.467 62.274 213.6 62.3635C215.645 62.3635 217.333 64.2425 217.245 66.3901Z" fill="white"/>
<path d="M223.111 62.2782H226.934V71.9421H228.622V62.2782H232.445V60.5781H223.111V62.2782Z" fill="white"/>
<path d="M248.089 60.5781H246.311V71.9421H248.089V60.5781Z" fill="white"/>
<path d="M240.889 64.5117C240.622 64.5117 240.178 64.5117 239.644 64.6012L239.556 60.6641H237.867V72.028H240.533C243.467 72.028 245.067 70.5963 245.067 68.1804C245.156 65.7644 243.556 64.5117 240.889 64.5117ZM243.2 68.1804C243.2 69.6121 242.4 70.3279 240.711 70.3279C240.267 70.3279 240 70.3279 239.644 70.3279V66.3908C239.733 66.3908 239.911 66.3908 240 66.3908C240.178 66.3908 240.444 66.3908 240.711 66.3908C242.311 66.2118 243.2 66.9277 243.2 68.1804Z" fill="white"/>
<path d="M14.4 39.9107H19.4667L24 28.9046C25.1556 26.2202 25.4222 25.3254 25.4222 25.3254H25.6889C25.6889 25.3254 25.7778 26.2202 27.1111 28.9941L32.1778 40.0001H37.2444L52.3556 4.47656H47.2889L38.7556 25.2359C36.3556 31.1416 36 32.3049 36 32.3049H35.7333C35.7333 32.3049 35.4667 31.1416 32.8 25.2359L30.0444 19.3302C29.4222 17.8986 29.0667 17.1827 29.0667 17.1827L34.4 4.47656H29.3333L20.8 25.2359C18.7556 30.0679 18.2222 32.3049 18.2222 32.3049H17.9556C17.9556 32.3049 17.4222 30.1573 15.5556 25.4149L7.11111 4.47656H0L14.4 39.9107Z" fill="white"/>
<path d="M75.5555 7.69848C82.8444 7.69848 88 13.6936 88 22.1942C88 30.5159 82.7555 36.5111 75.5555 36.5111C68.4444 36.5111 63.1111 30.3369 63.1111 22.1942C63.1111 14.0516 68.4444 7.69848 75.5555 7.69848ZM75.5555 40.6271C86.7555 40.6271 95.0222 32.8424 95.0222 22.1942C95.0222 11.5461 86.7555 3.67188 75.5555 3.67188C64.3555 3.67188 56.0889 11.4566 56.0889 22.1048C56.0889 32.6634 64.3555 40.6271 75.5555 40.6271Z" fill="white"/>
<path d="M97.689 43.7557H102.845L121.067 0H116L97.689 43.7557Z" fill="white"/>
<path d="M160 11.5412C160 11.5412 159.733 14.2256 159.733 20.8471V40.0854H166.222V4.47229H157.867L149.867 23.8895C147.111 30.7794 146.667 32.2111 146.667 32.2111H146.4C146.4 32.2111 146.133 30.7794 143.733 24.5158L135.733 4.38281H127.467V39.8169H132.089V19.8629C132.089 14.5835 131.822 11.5412 131.822 11.5412H132.089C132.089 11.5412 132.711 14.5835 134.756 19.5944L143.022 39.9064H148.089L156.356 19.9523C158.756 14.0467 159.822 11.3623 159.822 11.3623H160.089L160 11.5412Z" fill="white"/>
<path d="M179.111 39.9107L184.089 28.5467H199.111L203.911 39.9107H211.022L195.644 4.47656H189.689L174.044 39.9107H179.111ZM189.244 16.7353C191.289 11.9929 191.378 11.3665 191.378 11.3665H191.644C191.644 11.3665 191.733 11.9929 193.778 16.9143L196.8 23.9832H185.956L189.244 16.7353Z" fill="white"/>
<path d="M223.289 11.9929C223.289 11.9929 223.822 14.0509 227.911 20.0461L241.689 40.0001H248.089V4.47656H243.378V22.5515C243.378 29.8889 243.644 31.768 243.644 31.768H243.378C243.378 31.768 242.578 30.0679 238.667 24.2517L224.978 4.47656H218.578V39.9107H223.289V22.5515C223.289 14.2299 223.022 11.9034 223.022 11.9034L223.289 11.9929Z" fill="white"/>
</g>
<defs>
<clipPath id="clip0_326_3227">
<rect width="248" height="74" fill="white"/>
</clipPath>
</defs>
</svg>
